HIERARCHY
ROOT Hips
{
	OFFSET 0.000000 0.000000 0.000000 
	CHANNELS 6 Xposition Yposition Zposition Zrotation Xrotation Yrotation
	JOINT Spine
	{
		OFFSET -0.000000 8.061080 0.000000 
		CHANNELS 3 Zrotation Xrotation Yrotation
		JOINT Spine1
		{
			OFFSET -0.000000 20.532677 0.000000 
			CHANNELS 3 Zrotation Xrotation Yrotation
			JOINT Neck
			{
				OFFSET -0.000000 22.498795 0.000000 
				CHANNELS 3 Zrotation Xrotation Yrotation
				JOINT Head
				{
					OFFSET -0.000000 15.237408 1.966117 
					CHANNELS 3 Zrotation Xrotation Yrotation
					End Site
					{
						OFFSET -0.000000 19.661171 0.000000 
					}
				}
			}
			JOINT LeftShoulder
			{
				OFFSET 3.894675 16.042269 -0.398189 
				CHANNELS 3 Zrotation Xrotation Yrotation
				JOINT LeftArm
				{
					OFFSET 19.709621 0.000000 0.000000 
					CHANNELS 3 Zrotation Xrotation Yrotation
					JOINT LeftForeArm
					{
						OFFSET 25.566900 0.000000 0.000000 
						CHANNELS 3 Zrotation Xrotation Yrotation
						JOINT LeftHand
						{
							OFFSET 25.401896 0.000000 0.000000 
							CHANNELS 3 Zrotation Xrotation Yrotation
							End Site
							{
								OFFSET 14.745877 0.000000 0.000000 
							}
						}
					}
				}
			}
			JOINT RightShoulder
			{
				OFFSET -3.930777 16.042269 -0.398189 
				CHANNELS 3 Zrotation Xrotation Yrotation
				JOINT RightArm
				{
					OFFSET -19.709621 0.000000 0.000000 
					CHANNELS 3 Zrotation Xrotation Yrotation
					JOINT RightForeArm
					{
						OFFSET -25.566900 0.000000 0.000000 
						CHANNELS 3 Zrotation Xrotation Yrotation
						JOINT RightHand
						{
							OFFSET -25.401896 0.000000 0.000000 
							CHANNELS 3 Zrotation Xrotation Yrotation
							End Site
							{
								OFFSET -14.745877 0.000000 0.000000 
							}
						}
					}
				}
			}
		}
	}
	JOINT LeftUpLeg
	{
		OFFSET 9.830585 0.000000 0.000000 
		CHANNELS 3 Zrotation Xrotation Yrotation
		JOINT LeftLeg
		{
			OFFSET -0.000000 -46.474842 0.000000 
			CHANNELS 3 Zrotation Xrotation Yrotation
			JOINT LeftFoot
			{
				OFFSET -0.000000 -30.290520 0.000000 
				CHANNELS 3 Zrotation Xrotation Yrotation
				JOINT LeftToeBase
				{
					OFFSET -0.000000 -6.389880 14.745877 
					CHANNELS 3 Zrotation Xrotation Yrotation
					End Site
					{
						OFFSET -0.000000 0.000000 3.932234 
					}
				}
			}
		}
	}
	JOINT RightUpLeg
	{
		OFFSET -9.830585 0.000000 0.000000 
		CHANNELS 3 Zrotation Xrotation Yrotation
		JOINT RightLeg
		{
			OFFSET -0.000000 -46.474842 0.000000 
			CHANNELS 3 Zrotation Xrotation Yrotation
			JOINT RightFoot
			{
				OFFSET -0.000000 -30.290520 0.000000 
				CHANNELS 3 Zrotation Xrotation Yrotation
				JOINT RightToeBase
				{
					OFFSET -0.000000 -6.389880 14.745877 
					CHANNELS 3 Zrotation Xrotation Yrotation
					End Site
					{
						OFFSET -0.000000 0.000000 3.932234 
					}
				}
			}
		}
	}
}
MOTION
Frames: 15
Frame Time: 0.010000
-9.911593 85.719276 9.824697 -6.350949 6.596640 74.367203 6.532410 -3.165981 3.552405 -0.736464 -0.827180 1.109461 4.664195 12.120511 14.644212 -14.256193 15.214070 19.865520 2.505388 11.806569 2.336516 -69.269402 26.693237 -24.939558 -11.443039 -0.777297 -9.325593 5.596161 -1.443218 5.527261 -9.110590 9.390364 -10.508297 55.505745 56.164951 36.681484 5.872086 -10.544311 7.123785 -13.740411 -9.993191 -7.673406 3.184320 -10.283350 -1.065351 2.337300 -1.210059 5.161876 -11.241723 10.420785 -0.268196 0.000000 0.000000 0.000000 -10.998129 -14.667580 6.504590 4.130513 8.553238 0.290721 0.000000 0.000000 0.000000 0.000000 0.000000 0.000000 
-10.128030 85.734299 10.068474 -6.392181 6.383192 75.625046 6.593576 -3.125757 3.510452 -0.783176 -0.961946 1.094359 4.678705 12.274978 14.551118 -14.303393 15.386669 19.812992 2.472917 11.911331 2.520145 -69.146591 26.852295 -25.065758 -11.513126 -0.852192 -9.228393 5.360114 -1.538491 5.249288 -9.055732 9.549514 -10.609669 55.664459 56.020119 36.502636 5.900974 -10.459271 7.034776 -13.069782 -9.970003 -7.498214 3.256608 -10.140144 -1.047830 2.340809 -1.394423 5.855437 -10.779487 10.805331 -0.311950 0.000000 0.000000 0.000000 -10.823382 -14.310184 6.173998 4.130513 8.553238 0.290721 0.000000 0.000000 0.000000 0.000000 0.000000 0.000000 
-10.357323 85.735275 10.299932 -6.477945 6.201785 76.860580 6.554153 -3.320589 3.511611 -0.709830 -0.762264 1.093022 4.647995 12.248597 14.507518 -14.263344 15.545018 19.768736 2.545032 11.895719 2.441041 -69.259308 26.799374 -24.954535 -11.520817 -0.792139 -9.390998 5.462424 -1.488752 5.294648 -9.073323 9.548782 -10.689558 55.890255 55.941238 36.268780 5.940828 -10.546248 6.983145 -13.271378 -10.050362 -7.440343 3.315539 -10.063037 -1.038105 2.348381 -1.567964 6.608178 -10.293056 11.171773 -0.373556 0.000000 0.000000 0.000000 -10.670003 -14.049816 5.845123 4.130513 8.553238 0.290721 0.000000 0.000000 0.000000 0.000000 0.000000 0.000000 
-10.587683 85.742531 10.502378 -6.606340 6.036764 78.117607 6.505396 -3.764711 3.517578 -0.611365 -0.239417 1.090101 4.580290 12.186495 14.446854 -14.196361 15.550480 19.671268 2.611658 11.782962 2.320297 -69.448746 26.533970 -24.812408 -11.586349 -0.657760 -9.559844 5.349196 -1.382532 5.289755 -9.123366 9.427436 -10.693199 56.134117 55.782261 35.989708 6.004373 -10.562258 6.910998 -13.510323 -10.056161 -7.396076 3.338707 -10.057327 -1.038093 2.372849 -1.722494 7.355443 -9.772638 11.558826 -0.415905 0.000000 0.000000 0.000000 -10.554007 -13.853094 5.444724 4.130513 8.553238 0.290721 0.000000 0.000000 0.000000 0.000000 0.000000 0.000000 
-10.861833 85.719536 10.766756 -6.887630 5.848485 79.297333 6.530458 -3.568828 3.484012 -0.719251 -0.966799 1.077732 4.606063 12.359280 14.463135 -14.178738 15.857873 19.733236 2.536409 12.041191 2.651405 -69.173042 26.762192 -24.806747 -11.648843 -0.632011 -9.656134 5.355964 -1.375162 5.214991 -9.030787 9.684237 -10.802304 56.515762 55.717018 35.703278 6.014985 -10.516024 6.798616 -13.527822 -10.007444 -7.362627 3.541772 -10.747249 4.110525 2.215872 -0.649539 2.980891 -9.348991 10.934361 -0.558753 0.000000 0.000000 0.000000 -10.293364 -13.872120 5.250704 4.130513 8.553238 0.290721 0.000000 0.000000 0.000000 0.000000 0.000000 0.000000 
-10.702999 85.773811 10.747505 -6.134601 5.598732 80.453140 7.220635 -3.525945 3.414927 -1.424720 -0.185853 1.051982 4.552823 12.507127 14.350785 -14.232181 15.715097 19.608164 2.481665 12.011318 2.675555 -69.238617 26.662676 -24.699610 -11.661546 -0.495802 -9.677134 5.362875 -1.228501 5.499809 -9.048871 9.692116 -10.827778 57.031601 55.313560 35.156189 6.132918 -10.347078 6.777508 -13.079488 -9.890458 -7.207260 3.161026 -9.454395 3.693587 2.484105 -1.230556 4.035303 -8.772715 11.310923 -0.523662 0.000000 0.000000 0.000000 -10.506298 -12.496493 4.468535 4.130513 8.553238 0.290721 0.000000 0.000000 0.000000 0.000000 0.000000 0.000000 
-10.853690 85.770599 10.958097 -6.124236 5.372324 81.683403 7.175002 -4.051188 3.453487 -1.305255 0.569614 1.062559 4.354958 12.179896 14.344643 -13.811643 16.015316 19.466986 2.621950 11.910810 2.483199 -69.366844 26.562401 -24.882315 -11.684458 -0.464531 -9.360584 5.390759 -1.173689 5.321240 -9.104046 9.570210 -10.894729 57.345600 55.079773 34.852528 6.231330 -10.391853 6.771690 -13.371876 -9.915585 -7.265771 3.264971 -9.261389 3.960517 2.471628 -1.385293 4.545918 -8.259177 11.575192 -0.561816 0.000000 0.000000 0.000000 -10.311130 -12.103071 4.127142 4.130513 8.553238 0.290721 0.000000 0.000000 0.000000 0.000000 0.000000 0.000000 
-11.073125 85.750870 11.127518 -6.340135 5.274196 82.972672 7.287347 -3.885180 3.311503 -1.639171 -0.098375 1.009618 4.409267 12.284128 14.379929 -13.801732 16.397577 19.562017 2.546260 12.049692 2.861317 -69.142197 26.706060 -24.736298 -11.794333 -0.354069 -9.403855 5.282080 -1.076777 5.432271 -9.014943 9.774920 -10.955044 57.720726 55.151073 34.560947 6.127289 -10.315341 6.632146 -12.833311 -9.876382 -7.115134 3.246496 -9.402135 4.053562 2.484486 -1.486648 5.188629 -7.740215 11.880608 -0.567598 0.000000 0.000000 0.000000 -10.266609 -12.042661 3.642985 4.130513 8.553238 0.290721 0.000000 0.000000 0.000000 0.000000 0.000000 0.000000 
-11.399885 85.741531 11.476816 -6.625334 5.048047 84.195473 6.713727 -3.890069 3.267365 -0.980051 -0.501354 0.998723 4.236003 12.428125 14.264505 -13.662714 16.398569 19.370655 2.448441 12.164780 2.899266 -69.188034 26.508919 -24.633739 -11.845675 -0.235449 -9.366996 5.269691 -0.956246 5.495606 -9.103951 9.880075 -10.961933 57.944378 55.160778 34.331413 6.194409 -10.440928 6.612053 -13.075085 -9.997961 -7.044037 3.599167 -9.732666 4.596926 2.293701 -1.418910 5.498422 -7.243096 12.211658 -0.559710 0.000000 0.000000 0.000000 -9.851571 -12.131205 3.626847 4.130513 8.553238 0.290721 0.000000 0.000000 0.000000 0.000000 0.000000 0.000000 
-11.358298 85.755272 11.511219 -6.211701 4.796065 85.258286 6.979377 -4.270419 3.349259 -1.118034 0.482946 1.023839 4.235083 12.281878 14.140650 -13.666800 16.507376 19.251947 2.545049 12.085759 2.651356 -69.566635 26.181911 -24.555698 -11.768022 -0.133051 -9.199382 5.294156 -0.835249 5.357990 -9.119366 9.735731 -10.936496 58.022644 55.087193 34.019245 6.225460 -10.541914 6.701283 -12.844222 -10.125488 -6.993161 3.521603 -8.949914 4.915130 2.434905 -1.750395 5.975599 -6.755906 12.365884 -0.514977 0.000000 0.000000 0.000000 -9.815784 -11.269405 3.132771 4.130513 8.553238 0.290721 0.000000 0.000000 0.000000 0.000000 0.000000 0.000000 
-11.672296 85.718079 11.769600 -6.589599 4.675343 86.638313 6.992505 -4.130034 3.171463 -1.513708 -0.231762 0.959702 4.277992 12.265918 14.151315 -13.432919 16.752848 19.237724 2.642183 12.074649 2.952881 -69.260170 26.584135 -24.570126 -11.755799 -0.303687 -8.873600 5.242685 -0.969953 5.436369 -8.968360 9.883454 -11.031086 58.689083 54.998695 33.630829 6.189504 -10.389773 6.562994 -12.806982 -9.978358 -6.881221 3.669570 -9.485885 5.608493 2.315427 -1.558761 5.916151 -6.304280 12.570538 -0.460039 0.000000 0.000000 0.000000 -9.646487 -11.458915 2.756481 4.130513 8.553238 0.290721 0.000000 0.000000 0.000000 0.000000 0.000000 0.000000 
-11.701082 85.694450 11.835627 -6.381129 4.404786 87.736473 7.080521 -4.553639 3.282076 -1.387370 0.548210 0.996049 4.172549 12.202169 13.941686 -13.395129 16.679016 18.976959 2.614308 11.924135 2.743995 -69.580048 26.190535 -24.417168 -11.772631 -0.119855 -8.750206 5.330198 -0.763223 5.592991 -9.086506 9.771738 -11.122708 58.526123 55.169220 33.617172 6.223657 -10.587253 6.637411 -12.736963 -10.187406 -6.870578 3.724038 -9.006500 5.897243 2.406791 -1.801433 6.405021 -5.903010 12.626102 -0.414786 0.000000 0.000000 0.000000 -9.517761 -10.883308 2.309387 4.130513 8.553238 0.290721 0.000000 0.000000 0.000000 0.000000 0.000000 0.000000 
-11.877263 85.698586 11.993141 -6.364878 4.184752 89.001114 6.985499 -4.574003 3.184483 -1.303009 0.520779 0.963699 4.165073 12.170076 13.828041 -13.354390 16.867043 18.867895 2.576432 11.952894 2.718781 -69.699593 25.886740 -24.229860 -11.755978 0.061490 -8.688152 5.285485 -0.565161 5.834385 -9.120205 9.873155 -11.070095 58.824039 55.013813 33.290619 6.260550 -10.389503 6.823746 -12.792535 -9.955871 -7.252981 3.847961 -8.976216 6.283034 2.374369 -1.824349 6.630873 -5.480947 12.872566 -0.277318 0.000000 0.000000 0.000000 -9.338687 -10.599883 1.901972 4.130513 8.553238 0.290721 0.000000 0.000000 0.000000 0.000000 0.000000 0.000000 
-12.105380 85.656174 12.177195 -6.572944 3.987844 90.286575 6.914521 -4.425737 3.035463 -1.348657 -0.064286 0.911411 4.133008 12.223673 13.856514 -13.269686 17.079332 18.892174 2.526554 12.024476 2.972656 -69.575035 26.148146 -24.281687 -11.738551 -0.104789 -8.331900 5.418523 -0.691382 5.732047 -9.032309 10.098815 -11.231089 58.777599 55.039230 33.376484 6.263826 -10.339694 6.650559 -12.266076 -9.991281 -6.677019 4.005778 -9.269257 6.926401 2.315832 -1.711308 6.596073 -5.132105 12.964018 -0.165949 0.000000 0.000000 0.000000 -9.166514 -10.611352 1.500526 4.130513 8.553238 0.290721 0.000000 0.000000 0.000000 0.000000 0.000000 0.000000 
-12.248569 85.619125 12.296816 -6.584626 3.776446 91.504608 6.829206 -4.752975 3.029590 -1.241670 0.353764 0.908490 4.082510 12.195289 13.701253 -13.209954 16.911091 18.684967 2.513018 11.923916 2.847182 -69.674873 25.967434 -24.285509 -11.682967 -0.077934 -8.103861 5.390746 -0.639500 5.707555 -9.082639 10.011635 -11.284105 58.836643 55.100361 33.249321 6.232477 -10.351033 6.734358 -12.058264 -10.017980 -6.671488 4.117262 -9.260653 7.477944 2.311109 -1.711848 6.647605 -4.818144 13.016194 -0.033280 0.000000 0.000000 0.000000 -9.032701 -10.376130 1.061790 4.130513 8.553238 0.290721 0.000000 0.000000 0.000000 0.000000 0.000000 0.000000 
